<?xml version="1.0" standalone="no"?> <!DOCTYPE svg PUBLIC "-//W3C//DTD SVG 1.0//EN" "http://www.w3.org/TR/2001/REC-SVG-20010904/DTD/svg10.dtd" > <svg xmlns="http://www.w3.org/2000/svg" width="100%" height="100%">
<defs >
<font id="helioscbold" horiz-adv-x="986" ><font-face
    font-family="HeliosC"
    units-per-em="2048"
    panose-1="0 0 8 0 0 0 0 0 0 0"
    ascent="1487"
    descent="-443"
    alphabetic="0" />
<missing-glyph horiz-adv-x="1024" />
<glyph unicode=" " glyph-name="space" horiz-adv-x="575" />
<glyph unicode="!" glyph-name="exclam" horiz-adv-x="690" d="M498 293V0H195V293H498ZM195 1487H498V1108L424 408H270L195 1108V1487Z" />
<glyph unicode="&quot;" glyph-name="quotedbl" horiz-adv-x="978" d="M573 926V1487H776V926H573ZM203 926V1487H406V926H203Z" />
<glyph unicode="#" glyph-name="numbersign" horiz-adv-x="1150" d="M1053 598L1028 412H827L770 0H575L633 412H432L375 0H180L238 412H37L63 598H264L299 846H98L123 1032H324L381 1442H575L518 1032H721L776 1442H971L915 1032H1112L1087 846H889L852 598H1053ZM694
846H494L459 598H657L694 846Z" />
<glyph unicode="$" glyph-name="dollar" horiz-adv-x="1150" d="M1059 1036H793Q788 1105 773 1149T733 1214T683 1242T623 1249V862Q886 779 969 698Q1081 592 1081 410Q1081 350 1067 292T1018 177T932 75T802 0T623 -35V-238H528V-35Q279 -15 171 97T63 444H334Q339
382 347 345T375 272T432 216T528 184V618Q477 632 440 643T354 675T272 716T202 769T144 839T108 927T94 1038Q94 1125 120 1201T198 1337T335 1433T528 1468V1602H623V1468Q663 1464 695 1459T772 1440T851 1407T924 1355T988 1280T1034 1175T1059 1036ZM528
891V1249Q444 1245 399 1196T354 1087Q354 929 528 891ZM623 584V184Q646 184 669 189T717 209T761 246T792 304T805 387Q805 530 623 584Z" />
<glyph unicode="%" glyph-name="percent" horiz-adv-x="1837" d="M1028 350Q1028 506 1138 616T1405 727Q1559 727 1669 616T1780 350Q1780 194 1670 84T1405 -27Q1249 -27 1139 82T1028 350ZM1241 350Q1241 281 1289 234T1405 186Q1472 186 1519 234T1567 350Q1567
417 1519 465T1405 514Q1338 514 1290 466T1241 350ZM57 1092Q57 1248 167 1358T434 1468Q588 1468 698 1357T809 1092Q809 936 699 826T434 715Q278 715 168 824T57 1092ZM270 1092Q270 1023 318 976T434 928Q501 928 548 975T596 1092Q596 1159 548 1207T434
1255Q366 1255 318 1207T270 1092ZM1401 1468L578 -41H426L1249 1468H1401Z" />
<glyph unicode="&amp;" glyph-name="ampersand" horiz-adv-x="1492" d="M666 958Q803 1045 803 1143Q803 1202 769 1234T680 1266Q628 1266 594 1234T559 1145Q559 1077 666 958ZM1096 770H1352Q1338 626 1299 527T1182 324L1450 0H1102L999 125Q922 48 825 4T575
-41Q472 -41 384 -6T238 87T146 222T113 381Q113 441 124 490T166 597T263 714T428 834Q295 984 295 1143Q295 1295 405 1390T690 1485Q753 1485 815 1464T932 1403T1019 1294T1053 1141Q1053 932 807 786L1018 526Q1079 621 1096 770ZM850 307L578 649Q533 616
512 599T464 557T427 512T409 463T401 399Q401 380 407 357T428 306T467 256T531 218T621 203Q737 203 850 307Z" />
<glyph unicode="&apos;" glyph-name="quotesingle" horiz-adv-x="491" d="M145 926V1487H348V926H145Z" />
<glyph unicode="(" glyph-name="parenleft" horiz-adv-x="690" d="M436 1520H649Q584 1406 539 1309T453 1092T392 834T371 541Q371 387 392 250T455 -9T541 -223T649 -430H436Q360 -327 301 -228T187 -6T104 256T74 541T102 825T184 1087T297 1312T436 1520Z" />
<glyph unicode=")" glyph-name="parenright" horiz-adv-x="690" d="M41 1520H254Q330 1417 389 1318T503 1096T586 834T616 549Q616 403 588 264T506 2T393 -223T254 -430H41Q106 -317 152 -220T238 -2T299 256T319 549Q319 703 298 840T235 1099T149 1313T41 1520Z" />
<glyph unicode="*" glyph-name="asterisk" horiz-adv-x="804" d="M698 1311L750 1159L532 1094L674 893L545 801L403 989L260 801L131 893L270 1094L55 1159L104 1311L315 1239V1487H492V1241L698 1311Z" />
<glyph unicode="+" glyph-name="plus" horiz-adv-x="1208" d="M487 639V1049H719V639H1126V408H719V0H487V408H82V639H487Z" />
<glyph unicode="," glyph-name="comma" horiz-adv-x="573" d="M131 0V301H440V41Q440 -51 418 -120T352 -233T256 -304T133 -348H131V-238Q160 -228 179 -220T223 -193T263 -151T290 -89T305 0H131Z" />
<glyph unicode="-" glyph-name="hyphen" horiz-adv-x="741" d="M659 639V408H82V639H659Z" />
<glyph unicode="." glyph-name="period" horiz-adv-x="573" d="M440 301V0H131V301H440Z" />
<glyph unicode="/" glyph-name="slash" horiz-adv-x="573" d="M643 1526L172 -39H-70L401 1526H643Z" />
<glyph unicode="0" glyph-name="zero" horiz-adv-x="1150" d="M68 329T68 715T193 1284T580 1468Q839 1468 961 1285T1083 715Q1083 329 959 144T575 -41Q316 -41 192 144ZM365 1006T365 715T409 307T575 190Q697 190 741 307T786 715T742 1121T575 1237Q454 1237
410 1122Z" />
<glyph unicode="1" glyph-name="one" horiz-adv-x="1148" d="M141 1012V1214H184Q283 1214 356 1237T467 1300T523 1381T543 1468H780V0H492V1012H141Z" />
<glyph unicode="2" glyph-name="two" horiz-adv-x="1150" d="M352 950H72Q72 1048 92 1128T143 1261T219 1354T307 1415T399 1448T483 1464T551 1468Q657 1468 748 1438T907 1350T1015 1204T1055 1006Q1055 933 1037 869T991 757T920 665T839 591T750 528Q591
423 517 364T418 256H1055V0H55Q58 43 60 66T68 130T84 200T110 268T151 343T209 418T290 500T395 584Q466 635 500 660T584 724T654 784T703 837T740 893T758 949T766 1016Q766 1099 714 1162T563 1225Q505 1225 464 1206T401 1161T368 1093T354 1022T352 950Z"
/>
<glyph unicode="3" glyph-name="three" horiz-adv-x="1150" d="M350 995H82Q82 1211 204 1339T567 1468Q629 1468 690 1456T812 1413T919 1337T993 1220T1022 1059Q1022 956 971 884T846 778V774Q866 769 889 758T946 720T1004 658T1048 564T1067 434Q1067 225
928 93T567 -39Q530 -39 495 -36T406 -22T308 9T215 65T133 153T79 279T57 451H340L338 449Q338 419 341 391T358 325T393 260T456 213T553 193Q647 193 708 255T770 434Q770 476 759 509T729 563T682 600T627 624T564 636T502 642T440 643V850H487Q510 850 528
851T573 856T620 868T663 890T699 925T723 978T733 1049Q733 1068 730 1089T714 1137T683 1186T629 1222T549 1237Q494 1237 454 1216T395 1169T364 1103T352 1042T350 995Z" />
<glyph unicode="4" glyph-name="four" horiz-adv-x="1150" d="M274 557H635Q635 714 636 858T639 1087T641 1182H637L274 557ZM596 1468H924V557H1087V326H924V0H635V326H57V575L596 1468Z" />
<glyph unicode="5" glyph-name="five" horiz-adv-x="1150" d="M203 1442H1010V1198H412L360 881Q396 905 422 919T502 947T623 961Q684 961 744 945T864 891T967 801T1039 666T1067 487Q1067 421 1054 355T1004 216T910 88T756 -3T535 -39Q446 -39 365 -13T216
65T105 201T57 393H346Q355 298 405 246T549 193Q651 193 710 269T770 467Q770 517 758 562T721 646T653 706T555 729Q417 729 360 625L102 637L203 1442Z" />
<glyph unicode="6" glyph-name="six" horiz-adv-x="1150" d="M1047 1096H760Q754 1160 711 1198T590 1237Q369 1237 348 831L352 827Q439 948 627 948Q737 948 825 909T966 804T1047 659T1075 496Q1075 256 942 109T596 -39Q503 -39 427 -17T297 42T201 136T135
254T94 392T72 541T66 698Q66 752 68 798T76 907T94 1022T125 1133T174 1239T243 1330T336 1403T458 1450T610 1468Q796 1468 921 1360T1047 1096ZM786 471Q786 537 767 587T715 664T647 704T575 717Q482 717 418 655T354 465Q354 344 417 269T584 193Q671 193
728 262T786 471Z" />
<glyph unicode="7" glyph-name="seven" horiz-adv-x="1150" d="M51 1442H1094V1219Q1039 1160 986 1095T855 907T719 659T614 356T557 0H258Q267 166 313 335T420 633T554 880T682 1069T782 1186H51V1442Z" />
<glyph unicode="8" glyph-name="eight" horiz-adv-x="1150" d="M578 872Q662 872 710 922T758 1055Q758 1136 709 1186T588 1237Q492 1237 441 1187T389 1055Q389 983 439 928T578 872ZM1083 436Q1083 376 1068 315T1016 189T923 75T777 -7T575 -39Q466 -39 378
-12T233 60T138 164T84 284T68 408Q68 672 291 778Q113 869 113 1067Q113 1250 242 1359T569 1468Q679 1468 769 1437T916 1353T1003 1231T1034 1085Q1034 879 864 788Q938 752 984 709T1057 597T1083 436ZM786 424Q786 465 775 503T740 576T673 632T571 653Q484
653 425 596T365 426Q365 319 421 256T578 193Q649 193 698 230T766 318T786 424Z" />
<glyph unicode="9" glyph-name="nine" horiz-adv-x="1150" d="M352 981Q352 902 370 847T420 764T488 725T569 713Q654 713 718 775T782 958Q782 1087 727 1159T561 1231Q528 1231 496 1221T430 1186T374 1108T352 981ZM92 338H379V336Q402 193 549 193Q596 193
637 214T714 280T770 407T791 600L786 604Q704 481 508 481Q405 481 320 518T179 618T93 764T63 940Q63 1200 199 1334T561 1468Q643 1468 712 1448T831 1397T921 1318T986 1222T1030 1113T1058 1002T1072 891T1078 794T1079 713Q1079 574 1058 460T1000 264T913
124T802 29T678 -22T547 -39Q358 -39 235 62T92 338Z" />
<glyph unicode=":" glyph-name="colon" horiz-adv-x="690" d="M500 301V0H190V301H500ZM500 1059V758H190V1059H500Z" />
<glyph unicode=";" glyph-name="semicolon" horiz-adv-x="690" d="M190 0V301H500V41Q500 -51 478 -120T412 -233T316 -304T193 -348H190V-238Q219 -228 238 -220T282 -193T322 -151T349 -89T365 0H190ZM500 1059V758H190V1059H500Z" />
<glyph unicode="&lt;" glyph-name="less" horiz-adv-x="1208" d="M1130 207V-16L80 434V616L1130 1065V842L379 524L1130 207Z" />
<glyph unicode="=" glyph-name="equal" horiz-adv-x="1208" d="M1124 868V637H82V868H1124ZM1124 408V176H82V408H1124Z" />
<glyph unicode="&gt;" glyph-name="greater" horiz-adv-x="1208" d="M78 207L829 524L78 842V1065L1128 616V434L78 -16V207Z" />
<glyph unicode="?" glyph-name="question" horiz-adv-x="1263" d="M793 430H492Q492 494 496 538T514 625T551 703T614 774T711 850Q840 940 840 1055Q840 1113 821 1155T771 1218T707 1250T639 1260Q594 1260 559 1250T501 1220T462 1179T437 1127T424 1074T416
1022V1020H125Q125 1124 155 1208T234 1346T349 1436T482 1488T621 1503Q654 1503 689 1500T779 1487T881 1458T979 1407T1066 1329T1126 1216T1149 1065Q1149 945 1091 862T899 684Q832 637 813 590T793 430ZM793 291V0H492V291H793Z" />
<glyph unicode="@" glyph-name="at" horiz-adv-x="2017" d="M1202 778Q1202 856 1156 905T1036 954Q934 954 865 866T795 676Q795 593 838 543T956 492Q1061 492 1131 581T1202 778ZM1264 1020L1290 1130H1473Q1466 1096 1429 933T1366 649T1339 516Q1339 499
1347 486T1370 473Q1458 473 1531 574T1604 836Q1604 1001 1529 1121T1327 1300T1038 1360Q864 1360 729 1279T521 1056T449 739Q449 558 529 418T749 203T1067 127Q1193 127 1305 171T1501 295H1686Q1578 135 1414 48T1055 -39Q889 -39 740 20T482 182T308 431T244
743Q244 906 308 1052T479 1301T734 1465T1042 1526Q1183 1526 1314 1480T1547 1353T1710 1150T1772 887Q1772 761 1731 655T1627 482T1491 370T1353 304T1243 285Q1195 285 1162 312T1126 393L1122 395Q1077 347 1019 316T903 285Q769 285 670 392T571 645Q571
742 603 833T692 996T833 1111T1014 1155Q1181 1155 1264 1020Z" />
<glyph unicode="A" glyph-name="A" horiz-adv-x="1495" d="M571 1487H930L1452 0H1116L1020 307H473L369 0H43L571 1487ZM745 1151L555 563H952L750 1151H745Z" />
<glyph unicode="B" glyph-name="B" horiz-adv-x="1470" d="M143 0V1487H877Q964 1487 1036 1470T1156 1422T1239 1355T1294 1274T1322 1190T1331 1108Q1331 1047 1318 997T1286 917T1240 861T1194 824T1151 801Q1378 716 1378 444Q1378 411 1374 379T1356 301T1317
216T1247 135T1141 66T988 19T782 0H143ZM453 655V256H829Q1069 256 1069 475Q1069 565 1004 610T846 655H453ZM453 1231V905H815Q914 905 974 945T1034 1071Q1034 1158 977 1194T807 1231H453Z" />
<glyph unicode="C" glyph-name="C" horiz-adv-x="1495" d="M1415 999H1106Q1099 1026 1094 1043T1075 1091T1046 1142T1006 1187T949 1228T874 1253T776 1264Q727 1264 680 1250T580 1199T490 1105T426 953T401 737Q401 634 423 544T490 381T607 266T776 223Q905
223 991 298T1106 510H1415Q1367 257 1204 109T770 -39Q621 -39 498 11T283 158T142 404T92 741Q92 932 144 1083T289 1330T505 1476T774 1526Q902 1526 1009 1492T1188 1404T1310 1280T1385 1139T1415 999Z" />
<glyph unicode="D" glyph-name="D" horiz-adv-x="1497" d="M143 0V1487H799Q903 1487 990 1463T1138 1397T1247 1297T1324 1177T1372 1042T1398 907T1405 778Q1405 706 1397 635T1368 485T1316 339T1236 207T1124 99T975 27T786 0H143ZM446 1231V256H750Q823 256
881 285T977 361T1040 474T1076 610T1087 756Q1087 847 1075 920T1043 1042T995 1127T937 1182T871 1213T807 1228T745 1231H446Z" />
<glyph unicode="E" glyph-name="E" horiz-adv-x="1366" d="M143 1487H1241V1231H453V924H1176V668H453V256H1274V0H143V1487Z" />
<glyph unicode="F" glyph-name="F" horiz-adv-x="1255" d="M143 1487H1202V1231H453V924H1108V668H453V0H143V1487Z" />
<glyph unicode="G" glyph-name="G" horiz-adv-x="1617" d="M854 551V801H1475V0H1268L1237 186Q1209 151 1186 127T1120 68T1032 13T919 -23T774 -39Q637 -39 516 10T300 153T148 398T92 739Q92 863 118 977T202 1191T343 1366T547 1483T813 1526Q923 1526 1018
1504T1182 1442T1305 1352T1392 1245T1445 1133T1468 1024H1159Q1159 1049 1139 1087T1081 1165T978 1235T836 1264Q767 1264 705 1246T587 1188T490 1088T425 939T401 739Q401 621 427 530T494 381T594 288T713 237T840 223Q867 223 898 228T977 253T1066 306T1144
402T1200 551H854Z" />
<glyph unicode="H" glyph-name="H" horiz-adv-x="1484" d="M453 1487V924H1032V1487H1341V0H1032V668H453V0H143V1487H453Z" />
<glyph unicode="I" glyph-name="I" horiz-adv-x="595" d="M453 1487V0H143V1487H453Z" />
<glyph unicode="J" glyph-name="J" horiz-adv-x="1148" d="M696 1487H1006V430Q1006 196 889 79T545 -39Q215 -39 111 163Q55 271 52 483Q51 512 51 559H340Q340 493 341 452T349 366T366 297T398 251T447 220T518 211Q576 211 613 228T668 278T690 346T696 430V1487Z" />
<glyph unicode="K" glyph-name="K" horiz-adv-x="1466" d="M453 1487V883L1020 1487H1421L815 879L1456 0H1057L598 653L453 504V0H143V1487H453Z" />
<glyph unicode="L" glyph-name="L" horiz-adv-x="1251" d="M453 1487V256H1194V0H143V1487H453Z" />
<glyph unicode="M" glyph-name="M" horiz-adv-x="1724" d="M143 1487H596L864 315H868L1133 1487H1581V0H1292V1243H1290L1012 0H707L436 1243H432V0H143V1487Z" />
<glyph unicode="N" glyph-name="N" horiz-adv-x="1497" d="M143 1487H471L1061 453H1065V1487H1354V0H1042L438 1061H432V0H143V1487Z" />
<glyph unicode="O" glyph-name="O" horiz-adv-x="1609" d="M92 743Q92 887 121 1005T198 1203T311 1343T441 1437T578 1492T703 1519T805 1526T906 1520T1031 1492T1168 1438T1298 1344T1411 1204T1488 1006T1518 743Q1518 600 1489 481T1412 283T1299 144T1169
50T1032 -5T907 -32T805 -39T703 -33T578 -5T442 49T312 143T199 283T122 481T92 743ZM401 743Q401 624 427 530T494 380T590 287T698 237T805 223T912 236T1019 287T1115 380T1182 530T1208 743Q1208 863 1182 956T1115 1106T1019 1200T912 1250T805 1264T698
1251T591 1200T495 1107T428 957T401 743Z" />
<glyph unicode="P" glyph-name="P" horiz-adv-x="1374" d="M453 537V0H143V1487H823Q1038 1487 1160 1360T1282 1012Q1282 980 1277 944T1258 860T1222 769T1163 682T1078 608T961 557T809 537H453ZM453 1231V793H741Q973 793 973 1024Q973 1133 909 1182T700 1231H453Z" />
<glyph unicode="Q" glyph-name="Q" horiz-adv-x="1609" d="M823 403L983 569L1141 424Q1208 548 1208 741Q1208 861 1182 955T1115 1105T1019 1199T912 1250T805 1264T698 1250T591 1199T495 1106T428 955T401 741Q401 622 427 529T494 379T590 287T698 237T805
223Q899 223 973 262L823 403ZM1524 59L1362 -109L1186 59Q1020 -39 805 -39Q756 -39 703 -33T578 -6T442 48T311 142T198 282T122 479T92 741Q92 885 121 1004T198 1202T311 1343T441 1437T578 1492T703 1519T805 1526T906 1520T1031 1492T1168 1438T1298 1343T1411
1203T1488 1004T1518 741Q1518 410 1364 213L1524 59Z" />
<glyph unicode="R" glyph-name="R" horiz-adv-x="1458" d="M453 582V0H143V1487H901Q1013 1487 1100 1455T1235 1377T1315 1269T1356 1160T1366 1067Q1366 941 1307 845T1139 713Q1181 694 1205 679T1256 637T1295 572T1316 477T1325 336Q1325 162 1335 111T1393
41V0H1049Q1016 113 1016 301Q1016 360 1014 393T1005 463T982 518T939 553T872 576T774 582H453ZM453 1231V831H817Q940 831 998 879T1057 1034Q1057 1068 1048 1099T1017 1161T949 1212T838 1231H453Z" />
<glyph unicode="S" glyph-name="S" horiz-adv-x="1378" d="M80 459H377Q377 430 383 402T410 338T464 278T556 235T692 217Q753 217 804 225T902 254T977 314T1004 410Q1004 434 997 454T979 490T946 519T907 541T855 561T799 577T733 594L434 668Q102 748 102
1069Q102 1107 108 1146T131 1231T175 1318T247 1397T350 1464T491 1509T674 1526Q804 1526 907 1493T1073 1410T1177 1293T1235 1165T1251 1044H954Q951 1073 946 1094T922 1152T873 1211T786 1252T651 1270Q586 1270 530 1254T433 1197T391 1092Q391 1059 402
1033T428 991T467 963T508 947T549 936L911 848Q979 831 1030 813T1134 762T1222 690T1278 588T1300 449Q1300 357 1274 281T1208 156T1111 69T1001 12T888 -20T789 -36T715 -39Q560 -39 442 -4T257 82T149 204T94 335T80 459Z" />
<glyph unicode="T" glyph-name="T" horiz-adv-x="1263" d="M786 1231V0H477V1231H29V1487H1235V1231H786Z" />
<glyph unicode="U" glyph-name="U" horiz-adv-x="1468" d="M143 1487H453V520Q453 372 526 298T717 223Q873 223 944 295T1016 506V1487H1325V524Q1325 238 1169 100T723 -39Q640 -39 565 -26T411 24T274 120T180 277T143 504V1487Z" />
<glyph unicode="V" glyph-name="V" horiz-adv-x="1378" d="M39 1487H371L690 360H694L1018 1487H1339L836 0H539L39 1487Z" />
<glyph unicode="W" glyph-name="W" horiz-adv-x="1953" d="M33 1487H365Q457 1095 505 877T569 580T600 399H604Q683 853 811 1487H1141Q1317 664 1362 399H1366Q1410 649 1608 1487H1923L1505 0H1206Q1097 520 1057 725T977 1159H973Q964 1104 956 1056T941 969T922
867T902 763T874 626T841 467T797 255T743 0H453L33 1487Z" />
<glyph unicode="X" glyph-name="X" horiz-adv-x="1378" d="M55 1487H426L690 1006L961 1487H1319L866 772L1350 0H971L690 508L391 0H29L508 760L55 1487Z" />
<glyph unicode="Y" glyph-name="Y" horiz-adv-x="1378" d="M45 1487H397L705 840L997 1487H1350L852 561V0H543V561L45 1487Z" />
<glyph unicode="Z" glyph-name="Z" horiz-adv-x="1265" d="M72 1487H1212V1225L424 262H1212V0H51V264L819 1225H72V1487Z" />
<glyph unicode="[" glyph-name="bracketleft" horiz-adv-x="688" d="M131 1495H639V1296H383V-207H639V-406H131V1495Z" />
<glyph unicode="\" glyph-name="backslash" horiz-adv-x="573" d="M-70 1526H172L643 -39H401L-70 1526Z" />
<glyph unicode="]" glyph-name="bracketright" horiz-adv-x="688" d="M49 1495H557V-406H49V-207H305V1296H49V1495Z" />
<glyph unicode="^" glyph-name="asciicircum" horiz-adv-x="1208" d="M354 668H129L502 1444H707L1079 668H852L604 1212L354 668Z" />
<glyph unicode="_" glyph-name="underscore" horiz-adv-x="1150" d="M1151 -258H0V-156H1151V-258Z" />
<glyph unicode="`" glyph-name="grave" horiz-adv-x="688" d="M256 1249L-47 1550H270L465 1249H256Z" />
<glyph unicode="a" glyph-name="a" horiz-adv-x="1161" d="M385 745H106Q114 827 137 890T198 995T279 1064T378 1105T485 1124T598 1130Q642 1130 685 1125T780 1108T876 1072T957 1015T1015 929T1036 811V215Q1036 127 1052 92T1100 45V0H788Q769 64 762 131Q729
97 704 76T635 27T533 -15T406 -29Q342 -29 284 -10T177 46T101 147T72 293Q72 367 99 427T172 530T285 602T426 650T586 674Q676 681 715 705T754 770Q754 805 741 830T709 869T662 889T612 897T563 899Q512 899 476 885T422 846T397 797T385 745ZM754 537Q709
501 557 477Q461 461 411 427T360 311Q360 242 401 210T496 178Q597 178 675 239T754 395V537Z" />
<glyph unicode="b" glyph-name="b" horiz-adv-x="1265" d="M649 881Q583 881 534 853T456 777T415 670T401 543Q401 489 413 435T450 328T525 242T641 209Q770 209 833 300T897 526Q897 598 886 657T848 768T771 851T649 881ZM412 1487V958H418Q529 1130 735 1130Q828
1130 910 1095T1056 993T1157 817T1194 569Q1194 452 1167 348T1085 158T939 22T729 -29Q632 -29 549 11T416 139H412V0H123V1487H412Z" />
<glyph unicode="c" glyph-name="c" horiz-adv-x="1155" d="M791 401H1081Q1079 373 1072 342T1048 267T1007 185T943 105T854 36T734 -11T580 -29Q494 -29 422 -11T298 39T207 114T142 207T101 310T78 416T72 520Q72 657 102 766T195 958T359 1085T598 1130Q656
1130 713 1120T836 1080T951 1006T1039 884T1083 709H791Q787 733 780 755T757 802T722 845T669 875T598 887Q533 887 486 858T415 778T380 676T369 567Q369 533 369 510T375 446T388 376T412 314T452 259T511 224T592 209Q643 209 684 231T747 286T780 349T791
401Z" />
<glyph unicode="d" glyph-name="d" horiz-adv-x="1263" d="M1141 1487V0H858V139H854Q805 52 720 12T537 -29Q442 -29 364 4T232 93T142 225T89 385T72 563Q72 701 109 811T210 990T355 1094T530 1130Q737 1130 848 958H852V1487H1141ZM616 881Q550 881 501 853T423
777T382 670T369 543Q369 489 381 435T418 328T493 242T608 209Q675 209 725 235T805 306T849 407T864 526Q864 598 853 657T815 768T738 851T616 881Z" />
<glyph unicode="e" glyph-name="e" horiz-adv-x="1187" d="M807 324H1104Q1077 229 1024 158T904 48T766 -10T621 -29Q525 -29 445 -10T294 53T176 165T100 337T72 573Q72 608 75 646T92 741T128 849T190 952T284 1043T419 1105T600 1130Q841 1130 978 994T1116
582V473H369Q369 441 372 412T391 343T431 274T505 224T621 203Q685 203 737 235T807 324ZM369 662H819Q813 725 791 772T736 844T668 881T596 893Q496 893 439 833T369 662Z" />
<glyph unicode="f" glyph-name="f" horiz-adv-x="690" d="M469 895V0H180V895H20V1102H180V1190Q180 1503 504 1503H653V1266H571Q502 1266 486 1243T469 1145V1102H659V895H469Z" />
<glyph unicode="g" glyph-name="g" horiz-adv-x="1263" d="M864 1102H1141V59Q1141 19 1140 -9T1133 -83T1117 -161T1087 -235T1040 -307T970 -368T874 -418T748 -449T586 -461Q497 -461 416 -442T266 -383T154 -279T106 -129H420Q426 -154 434 -170T462 -205T523
-233T623 -242Q741 -242 802 -177T864 20V158H856Q813 81 738 26T557 -29Q456 -29 369 9T215 120T110 305T72 559Q72 697 110 808T214 988T363 1093T539 1130Q767 1130 860 938H864V1102ZM616 881Q550 881 501 853T423 777T382 670T369 543Q369 489 381 435T418
328T493 242T608 209Q675 209 725 235T805 306T849 407T864 526Q864 598 853 657T815 768T738 851T616 881Z" />
<glyph unicode="h" glyph-name="h" horiz-adv-x="1239" d="M412 1487V958H416Q445 1029 533 1079T735 1130Q903 1130 1009 1034T1116 762V0H827V670Q827 703 826 724T814 780T785 834T729 871T639 887Q539 887 476 820T412 631V0H123V1487H412Z" />
<glyph unicode="i" glyph-name="i" horiz-adv-x="534" d="M412 1102V0H123V1102H412ZM412 1499V1231H123V1499H412Z" />
<glyph unicode="j" glyph-name="j" horiz-adv-x="534" d="M123 1102H412V-115Q412 -187 402 -239T366 -328T310 -386T226 -421T120 -438T-14 -442V-211Q70 -211 96 -193T123 -109V1102ZM412 1499V1231H123V1499H412Z" />
<glyph unicode="k" glyph-name="k" horiz-adv-x="1150" d="M412 1487V684L776 1102H1130L743 676L1141 0H795L532 473L412 348V0H123V1487H412Z" />
<glyph unicode="l" glyph-name="l" horiz-adv-x="534" d="M412 1487V0H123V1487H412Z" />
<glyph unicode="m" glyph-name="m" horiz-adv-x="1820" d="M123 1102H401V940H406Q501 1130 717 1130Q831 1130 897 1089T1024 954Q1039 977 1051 993T1091 1038T1148 1084T1222 1116T1317 1130Q1485 1130 1591 1034T1698 762V0H1409V670Q1409 783 1366 835T1253
887Q1055 887 1055 659V0H766V662Q766 702 759 737T735 809T681 866T592 887Q412 887 412 676V0H123V1102Z" />
<glyph unicode="n" glyph-name="n" horiz-adv-x="1239" d="M123 1102H399V940H403Q423 973 443 999T503 1058T602 1111T735 1130Q903 1130 1009 1034T1116 762V0H827V670Q827 703 826 724T814 780T785 834T729 871T639 887Q539 887 476 820T412 631V0H123V1102Z" />
<glyph unicode="o" glyph-name="o" horiz-adv-x="1267" d="M635 1130Q725 1130 806 1109T959 1041T1083 928T1166 765T1196 553Q1196 409 1150 296T1026 113T848 7T635 -29Q545 -29 463 -7T310 61T186 175T103 338T72 551Q72 695 118 808T243 990T422 1094T635
1130ZM699 887T635 887T522 866T445 811T399 731T375 643T369 553T375 463T398 374T444 293T522 237T635 215T748 237T825 292T870 372T893 461T899 551T893 640T870 729T825 809T748 865Z" />
<glyph unicode="p" glyph-name="p" horiz-adv-x="1265" d="M649 881Q583 881 534 853T456 777T415 670T401 543Q401 489 413 435T450 328T525 242T641 209Q770 209 833 300T897 526Q897 598 886 657T848 768T771 851T649 881ZM401 1102V942H406Q430 981 453 1009T515
1067T609 1114T733 1130Q826 1130 908 1094T1054 988T1156 808T1194 559Q1194 467 1178 383T1124 223T1034 92T902 4T727 -29Q669 -29 620 -17T541 13T483 56T444 100T418 141L412 143V-442H123V1102H401Z" />
<glyph unicode="q" glyph-name="q" horiz-adv-x="1265" d="M616 881Q550 881 501 853T423 777T382 670T369 543Q369 489 381 435T418 328T493 242T608 209Q675 209 725 235T805 306T849 407T864 526Q864 598 853 657T815 768T738 851T616 881ZM864 1102H1143V-442H854V143L848
141Q830 110 812 88T758 36T666 -12T539 -29Q443 -29 365 3T233 91T142 222T89 382T72 559Q72 697 109 808T211 988T357 1093T532 1130Q601 1130 656 1114T750 1068T812 1009T860 942H864V1102Z" />
<glyph unicode="r" glyph-name="r" horiz-adv-x="796" d="M123 1102H401V911H406Q428 952 443 977T486 1035T541 1086T613 1117T707 1130Q740 1130 764 1126V831Q726 838 680 838Q412 838 412 578V0H123V1102Z" />
<glyph unicode="s" glyph-name="s" horiz-adv-x="1153" d="M1049 766H766Q761 798 753 819T724 863T666 899T571 911Q393 911 393 803Q393 768 431 745T529 708T663 680T810 644T944 588T1043 494T1081 350Q1081 284 1063 229T1016 135T946 66T862 19T771 -10T681
-25T600 -29Q521 -29 449 -18T307 21T186 91T104 200T72 352H369Q369 190 608 190Q661 190 699 202T757 232T784 269T793 305Q793 342 756 366T658 404T525 432T380 467T247 523T149 617T111 762Q111 814 123 863T168 961T249 1047T377 1107T555 1130Q1022 1130
1049 766Z" />
<glyph unicode="t" glyph-name="t" horiz-adv-x="690" d="M170 1397H459V1100H639V893H459V295Q459 267 461 254T475 228T511 211T580 207Q627 207 639 211V-6Q584 -12 504 -12Q419 -12 359 -1T262 30T205 80T177 145T170 225V893H23V1100H170V1397Z" />
<glyph unicode="u" glyph-name="u" horiz-adv-x="1234" d="M123 1102H412V418Q412 215 600 215Q630 215 659 222T719 247T771 292T808 365T823 467V1102H1112V0H836V156H831Q782 67 696 19T496 -29Q325 -29 224 72T123 377V1102Z" />
<glyph unicode="v" glyph-name="v" horiz-adv-x="1150" d="M27 1102H336L569 289H573L815 1102H1124L727 0H422L27 1102Z" />
<glyph unicode="w" glyph-name="w" horiz-adv-x="1609" d="M20 1102H330L502 309H504L659 1102H952L1118 309H1120L1292 1102H1591L1274 0H977L805 805H801L629 0H332L20 1102Z" />
<glyph unicode="x" glyph-name="x" horiz-adv-x="1150" d="M45 1102H397L584 780L766 1102H1108L745 561L1120 0H762L571 332L381 0H31L406 561L45 1102Z" />
<glyph unicode="y" glyph-name="y" horiz-adv-x="1150" d="M20 1102H344L580 291H584L809 1102H1116L737 20Q710 -57 693 -103T654 -202T614 -284T572 -344T523 -391T467 -419T397 -437T311 -442Q262 -442 180 -438V-207Q206 -211 236 -211Q281 -211 307 -207T359
-186T400 -135T426 -45L20 1102Z" />
<glyph unicode="z" glyph-name="z" horiz-adv-x="1032" d="M80 1102H971V864L399 231H993V0H41V225L621 870H80V1102Z" />
<glyph unicode="{" glyph-name="braceleft" horiz-adv-x="804" d="M756 1495V1313H662Q625 1313 600 1302T564 1269T549 1227T545 1180V774Q545 725 527 685T482 621T421 580T360 556T309 547V543Q336 541 360 537T420 518T482 482T526 420T545 328V-78Q545 -223
662 -223H756V-406H584Q515 -406 451 -377T340 -280T293 -121V293Q293 338 272 371T218 420T155 443T98 451V641Q125 641 154 648T217 671T271 719T293 797V1210Q293 1266 310 1314T357 1394T425 1450T503 1484T584 1495H756Z" />
<glyph unicode="|" glyph-name="bar" horiz-adv-x="577" d="M403 1526V-39H172V1526H403Z" />
<glyph unicode="}" glyph-name="braceright" horiz-adv-x="804" d="M49 1313V1495H221Q272 1495 321 1478T414 1427T483 1338T510 1212V799Q510 754 531 721T586 672T650 648T707 639V451Q680 451 650 444T587 421T532 373T510 295V-119Q510 -211 464 -278T354
-376T221 -406H49V-223H143Q173 -223 195 -214T229 -193T247 -160T256 -124T258 -86V319Q258 356 268 388T293 442T330 481T373 509T419 527T461 538T496 543V547Q472 549 445 556T383 580T322 620T277 683T258 770V1176Q258 1198 256 1214T248 1250T229 1282T195
1304T143 1313H49Z" />
<glyph unicode="~" glyph-name="asciitilde" horiz-adv-x="1208" d="M1008 711L1081 524Q1051 482 1032 458T979 404T908 360T823 346Q769 346 710 368T607 417T500 466T375 489Q268 489 201 338L127 524Q220 702 385 702Q439 702 505 680T622 631T730 582T825
559Q854 559 880 571T931 609T970 655T1008 711Z" />
</font>
</defs>
</svg>
